<svg width="10" height="14" viewBox="0 0 10 14" fill="none" xmlns="http://www.w3.org/2000/svg">
<path d="M3.49023 6.75938C3.01779 6.75938 2.65421 6.90861 2.43552 7.2002C2.18544 7.53351 2.15585 8.03112 2.36502 8.38347C2.75842 9.04628 3.92843 9.39405 5.20617 8.82856C5.44936 8.7209 5.69981 8.5411 5.93573 8.31117C5.91004 8.2591 5.88381 8.20951 5.85752 8.16216C5.4854 7.49695 4.91526 7.03665 4.25201 6.86591C3.97518 6.79466 3.71985 6.75938 3.49023 6.75938ZM8.09527 13.036L5.96907 12.3804C6.15374 11.7816 6.25886 11.2458 6.30546 10.7684C6.23953 10.8021 6.17338 10.8335 6.1067 10.8631C3.91382 11.8336 1.48262 11.2559 0.451739 9.51924C-0.218561 8.38991 -0.136599 6.92158 0.655594 5.86522C1.07559 5.30512 2.32134 4.07143 4.80663 4.71124C5.68243 4.93667 6.46368 5.41226 7.08424 6.0857C7.12762 5.71156 7.09128 5.34116 6.94706 5.00335C6.57059 4.1211 5.65081 3.09127 3.40205 3.196C3.34466 3.19855 3.30331 3.19983 3.27963 3.19983V0.974882L3.26038 0.975183L3.29851 0.973382C6.00863 0.847593 8.08351 1.99782 8.99347 4.13009C9.63598 5.63574 9.27442 7.3794 8.41675 8.75259C8.64308 9.84259 8.64263 11.2608 8.09527 13.036Z" fill="white"/>
</svg>
