<svg width="23" height="20" viewBox="0 0 23 20" fill="none" xmlns="http://www.w3.org/2000/svg">
<path d="M9.75 18.25C9.75 18.5467 9.66203 18.8367 9.4972 19.0834C9.33238 19.33 9.09811 19.5223 8.82402 19.6358C8.54994 19.7494 8.24834 19.7791 7.95736 19.7212C7.66639 19.6633 7.39912 19.5204 7.18934 19.3107C6.97956 19.1009 6.8367 18.8336 6.77882 18.5426C6.72094 18.2517 6.75065 17.9501 6.86418 17.676C6.97771 17.4019 7.16997 17.1676 7.41664 17.0028C7.66332 16.838 7.95333 16.75 8.25 16.75C8.64782 16.75 9.02936 16.908 9.31066 17.1893C9.59196 17.4706 9.75 17.8522 9.75 18.25ZM18 16.75C17.7033 16.75 17.4133 16.838 17.1666 17.0028C16.92 17.1676 16.7277 17.4019 16.6142 17.676C16.5006 17.9501 16.4709 18.2517 16.5288 18.5426C16.5867 18.8336 16.7296 19.1009 16.9393 19.3107C17.1491 19.5204 17.4164 19.6633 17.7074 19.7212C17.9983 19.7791 18.2999 19.7494 18.574 19.6358C18.8481 19.5223 19.0824 19.33 19.2472 19.0834C19.412 18.8367 19.5 18.5467 19.5 18.25C19.5 17.8522 19.342 17.4706 19.0607 17.1893C18.7794 16.908 18.3978 16.75 18 16.75ZM22.4728 4.95062L20.0691 13.6019C19.9369 14.0745 19.6542 14.4911 19.2639 14.7885C18.8736 15.0859 18.397 15.2479 17.9062 15.25H8.64C8.14784 15.2498 7.66926 15.0886 7.27725 14.791C6.88523 14.4935 6.6013 14.0758 6.46875 13.6019L3.18 1.75H1.5C1.30109 1.75 1.11032 1.67098 0.96967 1.53033C0.829018 1.38968 0.75 1.19891 0.75 1C0.75 0.801088 0.829018 0.610322 0.96967 0.46967C1.11032 0.329018 1.30109 0.25 1.5 0.25H3.75C3.91397 0.249969 4.07343 0.303673 4.20398 0.402893C4.33452 0.502113 4.42895 0.64138 4.47281 0.799375L5.36156 4H21.75C21.8656 3.99998 21.9797 4.02669 22.0833 4.07805C22.1869 4.1294 22.2772 4.20401 22.3472 4.29605C22.4171 4.38809 22.4649 4.49506 22.4867 4.60861C22.5085 4.72216 22.5037 4.83922 22.4728 4.95062ZM20.7628 5.5H5.77875L7.91719 13.2006C7.96105 13.3586 8.05548 13.4979 8.18602 13.5971C8.31657 13.6963 8.47603 13.75 8.64 13.75H17.9062C18.0702 13.75 18.2297 13.6963 18.3602 13.5971C18.4908 13.4979 18.5852 13.3586 18.6291 13.2006L20.7628 5.5Z" fill="#343330"/>
</svg>
