<svg width="20" height="20" viewBox="0 0 20 20" fill="none" xmlns="http://www.w3.org/2000/svg">
<g clip-path="url(#clip0_5153_15817)">
<path d="M14.66 13.626C13.58 15.0075 11.895 15.8953 9.99998 15.8953C8.10498 15.8953 6.41998 15.0075 5.33998 13.626L1.22498 14.7881C2.92498 17.8803 6.21498 19.9751 9.99998 19.9751C13.785 19.9751 17.075 17.8803 18.775 14.7881L14.66 13.626Z" fill="#FE5300"/>
<path d="M4.09 9.99996C4.09 6.74311 6.735 4.1047 10 4.1047C13.265 4.1047 15.91 6.74311 15.91 9.99996H20C20 4.48874 15.525 0.0249023 10 0.0249023C4.475 0.0249023 0 4.48874 0 9.99996H4.09Z" fill="#FE5300"/>
</g>
<defs>
<clipPath id="clip0_5153_15817">
<rect width="20" height="20" fill="white"/>
</clipPath>
</defs>
</svg>
