<svg width="57" height="20" viewBox="0 0 57 20" fill="none" xmlns="http://www.w3.org/2000/svg">
<path d="M12.064 7.67004L10.0755 8.58023C9.87945 8.14623 9.44572 7.35254 8.70355 7.35254C8.24136 7.35254 7.93333 7.63265 7.93333 8.01067C7.93333 9.34106 12.0225 9.20111 12.0225 12.1979C12.0225 14.0044 10.7341 15.3068 8.59145 15.3068C6.39286 15.3068 5.25206 13.2546 5 12.5123L7.00258 11.518C7.26863 12.0922 7.79147 13.0535 8.73154 13.0662C9.30563 13.0739 9.59974 12.8141 9.59974 12.38C9.59974 11.0776 5.53859 11.1897 5.53859 8.05272C5.53859 6.28827 6.813 5.13995 8.75954 5.13995C10.8601 5.13995 11.812 6.92781 12.064 7.67004Z" fill="#F65B52"/>
<path d="M16.9881 10.9846C16.9881 10.3043 16.6269 9.85079 15.9919 9.85079C15.3478 9.85079 14.9855 10.3194 14.9855 11.151V15.1254H12.6469V5.00054H14.9855V8.09708C15.4476 7.79473 16.0071 7.65862 16.8083 7.73421C18.8703 7.92873 19.3267 9.86587 19.3267 11.0502V15.1254H16.9881V10.9846Z" fill="#F65B52"/>
<path d="M33.5453 9.97195C32.3661 9.97195 31.438 10.7004 31.438 11.6376V15.1254H29.0992V7.77329H31.382V8.68673C31.8446 8.10844 32.4183 7.7645 33.3286 7.7645H33.8572L33.8344 9.97195H33.5453Z" fill="#F65B52"/>
<path d="M36.2721 10.5735H39.069C39.041 9.98533 38.5399 9.38143 37.6025 9.42679C36.7564 9.46777 36.3281 10.0553 36.2721 10.5735ZM36.2221 12.0578C36.2781 12.716 36.8656 13.2262 37.7339 13.2262C38.6161 13.2262 39.0348 12.5094 39.1748 12.2993L40.8378 13.3877C40.6278 13.8219 39.5673 15.3078 37.6933 15.3068C35.2706 15.3055 33.9078 13.6403 33.9078 11.4697C33.9078 9.31307 35.3642 7.5906 37.5208 7.5906C39.8594 7.5906 41.2141 9.08907 41.2141 11.5957C41.2141 11.7358 41.2142 11.8898 41.2001 12.0578H36.2221Z" fill="#F65B52"/>
<path d="M41.768 15.1254H44.1068V5.00054H41.768V15.1254Z" fill="#F65B52"/>
<path d="M48.3602 17.631H46.1475L47.1418 14.8862L44.5576 7.77215H46.9037L48.2061 11.6686L49.6448 7.77215H52.0012L48.3602 17.631Z" fill="#F65B52"/>
<path d="M23.1362 10.7556C22.7098 10.7556 22.3817 10.8903 22.1844 11.1534C21.9587 11.4542 21.932 11.9033 22.1207 12.2213C22.4758 12.8195 23.5316 13.1333 24.6848 12.623C24.9042 12.5258 25.1303 12.3636 25.3432 12.1561C25.32 12.1091 25.2963 12.0643 25.2726 12.0216C24.9367 11.4213 24.4222 11.0059 23.8237 10.8518C23.5738 10.7875 23.3434 10.7556 23.1362 10.7556ZM27.2921 16.42L25.3732 15.8284C25.5399 15.288 25.6348 14.8045 25.6768 14.3736C25.6173 14.404 25.5576 14.4324 25.4975 14.459C23.5185 15.3349 21.3244 14.8136 20.3941 13.2463C19.7891 12.2271 19.8631 10.902 20.578 9.94868C20.9571 9.44321 22.0813 8.32985 24.3242 8.90726C25.1146 9.1107 25.8196 9.5399 26.3796 10.1477C26.4188 9.81001 26.386 9.47573 26.2558 9.17087C25.9161 8.37468 25.086 7.44529 23.0566 7.53981C23.0048 7.54211 22.9675 7.54326 22.9461 7.54326V5.53534L22.9288 5.53561L22.9632 5.53398C25.4089 5.42046 27.2814 6.4585 28.1027 8.38279C28.6825 9.74158 28.3562 11.3152 27.5822 12.5544C27.7864 13.5381 27.786 14.818 27.2921 16.42Z" fill="#F65B52"/>
</svg>
