<?xml version="1.0" standalone="no"?><!DOCTYPE svg PUBLIC "-//W3C//DTD SVG 1.1//EN" "http://www.w3.org/Graphics/SVG/1.1/DTD/svg11.dtd"><svg t="1753405620746" class="icon" viewBox="0 0 1024 1024" version="1.1" xmlns="http://www.w3.org/2000/svg" p-id="8270" xmlns:xlink="http://www.w3.org/1999/xlink" width="80" height="80"><path d="M512 640c159.061333 0 288-124.16 288-277.333333S671.061333 85.333333 512 85.333333 224 209.493333 224 362.666667 352.938667 640 512 640zM673.706667 666.026667c14.08-7.253333 30.293333 3.413333 30.293333 19.2v206.933333c0 38.4-26.88 57.173333-60.16 41.386667l-114.346667-54.186667c-9.813333-4.266667-25.173333-4.266667-34.986666 0l-114.346667 54.186667c-33.28 15.36-60.16-3.413333-60.16-41.813334l0.853333-206.506666c0-15.786667 16.64-26.026667 30.293334-19.2 48.213333 24.32 102.826667 37.973333 160.853333 37.973333 58.026667 0 113.066667-13.653333 161.706667-37.973333z" p-id="8271"></path></svg>