<svg width="16" height="16" viewBox="0 0 16 16" fill="none" xmlns="http://www.w3.org/2000/svg">
<path d="M11.3537 10.6462C11.4002 10.6926 11.4371 10.7477 11.4623 10.8084C11.4874 10.8691 11.5004 10.9342 11.5004 10.9999C11.5004 11.0656 11.4874 11.1307 11.4623 11.1914C11.4371 11.2521 11.4002 11.3072 11.3537 11.3537L8.35372 14.3537C8.30729 14.4001 8.25214 14.437 8.19144 14.4622C8.13074 14.4873 8.06568 14.5003 7.99997 14.5003C7.93427 14.5003 7.8692 14.4873 7.8085 14.4622C7.7478 14.437 7.69266 14.4001 7.64622 14.3537L4.64622 11.3537C4.5524 11.2598 4.49969 11.1326 4.49969 10.9999C4.49969 10.8672 4.5524 10.74 4.64622 10.6462C4.74004 10.5523 4.86729 10.4996 4.99997 10.4996C5.13265 10.4996 5.2599 10.5523 5.35372 10.6462L7.99997 13.293L10.6462 10.6462C10.6927 10.5997 10.7478 10.5628 10.8085 10.5376C10.8692 10.5125 10.9343 10.4995 11 10.4995C11.0657 10.4995 11.1307 10.5125 11.1914 10.5376C11.2521 10.5628 11.3073 10.5997 11.3537 10.6462ZM5.35372 5.35366L7.99997 2.70678L10.6462 5.35366C10.74 5.44748 10.8673 5.50018 11 5.50018C11.1327 5.50018 11.2599 5.44748 11.3537 5.35366C11.4475 5.25984 11.5003 5.13259 11.5003 4.99991C11.5003 4.86722 11.4475 4.73998 11.3537 4.64615L8.35372 1.64615C8.30729 1.59967 8.25214 1.56279 8.19144 1.53763C8.13074 1.51246 8.06568 1.49951 7.99997 1.49951C7.93427 1.49951 7.8692 1.51246 7.8085 1.53763C7.7478 1.56279 7.69266 1.59967 7.64622 1.64615L4.64622 4.64615C4.5524 4.73998 4.49969 4.86722 4.49969 4.99991C4.49969 5.13259 4.5524 5.25983 4.64622 5.35365C4.74004 5.44748 4.86729 5.50018 4.99997 5.50018C5.13265 5.50018 5.2599 5.44748 5.35372 5.35366Z" fill="#343330"/>
</svg>
