<svg width="36" height="12" viewBox="0 0 36 12" fill="none" xmlns="http://www.w3.org/2000/svg">
<g clip-path="url(#clip0_5294_2441)">
<path d="M21.6269 0.0865479H19.6299V11.8358H21.6269V0.0865479Z" fill="#190E3B"/>
<path d="M14.0596 2.80298C10.5372 2.80298 8.33124 6.62686 10.0805 9.68358C12.0447 13.1164 16.8596 12.3492 18.2387 9.63581L16.4775 9.16417C14.9432 10.8687 11.8268 10.4657 11.4566 8.12238H18.5611C19.0118 5.3791 16.8626 2.80298 14.0596 2.80298ZM11.4596 6.59402C12.0745 3.88358 16.0118 3.88955 16.5969 6.59402H11.4596Z" fill="#190E3B"/>
<path d="M4.74331 2.79103C3.55823 2.79103 2.58808 3.30446 2.00898 4.06565V0.0865479H0.0119629V11.8328H2.00599C2.00599 6.92237 1.90749 6.71043 2.30152 5.92535C3.14032 4.25073 5.36719 4.22983 6.18808 5.69849C6.57017 6.38207 6.47465 6.53132 6.47465 11.8358H8.47166V6.38207C8.47166 4.197 6.7851 2.79103 4.74331 2.79103Z" fill="#190E3B"/>
<path d="M25.1164 3.62683H23.1194V11.8358H25.1164V3.62683Z" fill="#190E3B"/>
<path d="M23.2358 0.388021C22.7343 0.889513 22.7433 1.71638 23.2358 2.19399C23.7463 2.68951 24.5671 2.66862 25.0507 2.19399C25.5552 1.69847 25.5403 0.874588 25.0507 0.388021C24.5492 -0.110487 23.7313 -0.107502 23.2358 0.388021Z" fill="#190E3B"/>
<path d="M30.7193 10.1075H30.7133C29.8447 10.1075 29.0715 9.69857 28.576 9.06274L26.6895 9.59707C27.4686 11.018 28.979 11.9821 30.7163 11.9821C32.4536 11.9821 33.9611 11.018 34.7432 9.59707L32.8566 9.06274C32.3611 9.69857 31.588 10.1075 30.7193 10.1075Z" fill="#FE5300"/>
<path d="M30.7133 4.68657C32.2118 4.68657 33.4237 5.9015 33.4237 7.39702H35.3014C35.3014 4.86269 33.2476 2.80896 30.7133 2.80896C28.179 2.80896 26.1252 4.86269 26.1252 7.39702H28.0029C28.0029 5.89851 29.2178 4.68657 30.7133 4.68657Z" fill="#FE5300"/>
</g>
<defs>
<clipPath id="clip0_5294_2441">
<rect width="35.3134" height="12" fill="white"/>
</clipPath>
</defs>
</svg>
